<mxfile host="app.diagrams.net" modified="2023-11-14T00:41:43.515Z" agent="Mozilla/5.0 (Windows NT 10.0; Win64; x64) AppleWebKit/537.36 (KHTML, like Gecko) Chrome/119.0.0.0 Safari/537.36" etag="dCxDnKifCLAvNnapVD1u" version="22.1.0" type="github">
  <diagram id="pO2yckjJLUHZ3hkfKYDs" name="Page-1">
    <mxGraphModel dx="989" dy="509" grid="0" gridSize="1" guides="1" tooltips="1" connect="1" arrows="1" fold="1" page="1" pageScale="1" pageWidth="1169" pageHeight="827" math="0" shadow="0">
      <root>
        <mxCell id="0" />
        <mxCell id="1" parent="0" />
        <mxCell id="PHXaZqlkiY236tPAjjlE-46" value="" style="group" vertex="1" connectable="0" parent="1">
          <mxGeometry x="315" y="558" width="405" height="200" as="geometry" />
        </mxCell>
        <mxCell id="-irzvPiJJPFumrXj4F0A-75" value="" style="rounded=0;whiteSpace=wrap;html=1;movable=1;resizable=1;rotatable=1;deletable=1;editable=1;locked=0;connectable=1;" parent="PHXaZqlkiY236tPAjjlE-46" vertex="1">
          <mxGeometry x="1" width="387" height="200" as="geometry" />
        </mxCell>
        <mxCell id="-irzvPiJJPFumrXj4F0A-76" value="&lt;font style=&quot;font-size: 7px;&quot;&gt;FSM&lt;/font&gt;" style="rounded=0;whiteSpace=wrap;html=1;movable=1;resizable=1;rotatable=1;deletable=1;editable=1;locked=0;connectable=1;container=0;" parent="PHXaZqlkiY236tPAjjlE-46" vertex="1">
          <mxGeometry x="202" y="16" width="80" height="80" as="geometry" />
        </mxCell>
        <mxCell id="-irzvPiJJPFumrXj4F0A-78" value="&lt;font style=&quot;font-size: 8px;&quot;&gt;count&lt;/font&gt;" style="text;html=1;strokeColor=none;fillColor=none;align=left;verticalAlign=middle;whiteSpace=wrap;rounded=0;movable=1;resizable=1;rotatable=1;deletable=1;editable=1;locked=0;connectable=1;container=0;" parent="PHXaZqlkiY236tPAjjlE-46" vertex="1">
          <mxGeometry x="202" y="16" width="60" height="10" as="geometry" />
        </mxCell>
        <mxCell id="-irzvPiJJPFumrXj4F0A-105" value="&lt;font style=&quot;font-size: 7px;&quot;&gt;tdm_sync&lt;/font&gt;" style="text;html=1;strokeColor=none;fillColor=none;align=left;verticalAlign=middle;whiteSpace=wrap;rounded=0;movable=1;resizable=1;rotatable=1;deletable=1;editable=1;locked=0;connectable=1;container=0;" parent="PHXaZqlkiY236tPAjjlE-46" vertex="1">
          <mxGeometry x="202" y="66" width="60" height="10" as="geometry" />
        </mxCell>
        <mxCell id="-irzvPiJJPFumrXj4F0A-106" value="&lt;font style=&quot;font-size: 8px;&quot;&gt;output&lt;/font&gt;" style="text;html=1;strokeColor=none;fillColor=none;align=right;verticalAlign=middle;whiteSpace=wrap;rounded=0;movable=1;resizable=1;rotatable=1;deletable=1;editable=1;locked=0;connectable=1;container=0;" parent="PHXaZqlkiY236tPAjjlE-46" vertex="1">
          <mxGeometry x="222" y="16" width="60" height="10" as="geometry" />
        </mxCell>
        <mxCell id="-irzvPiJJPFumrXj4F0A-117" value="&lt;font style=&quot;font-size: 6px;&quot;&gt;DFF&lt;/font&gt;" style="rounded=0;whiteSpace=wrap;html=1;movable=1;resizable=1;rotatable=1;deletable=1;editable=1;locked=0;connectable=1;container=0;" parent="PHXaZqlkiY236tPAjjlE-46" vertex="1">
          <mxGeometry x="142" y="136" width="80" height="60" as="geometry" />
        </mxCell>
        <mxCell id="-irzvPiJJPFumrXj4F0A-118" value="&lt;font style=&quot;font-size: 7px;&quot;&gt;8-bit counter&lt;/font&gt;" style="rounded=0;whiteSpace=wrap;html=1;movable=1;resizable=1;rotatable=1;deletable=1;editable=1;locked=0;connectable=1;container=0;" parent="PHXaZqlkiY236tPAjjlE-46" vertex="1">
          <mxGeometry x="72" y="16" width="80" height="80" as="geometry" />
        </mxCell>
        <mxCell id="-irzvPiJJPFumrXj4F0A-119" value="&lt;font style=&quot;font-size: 8px;&quot;&gt;clock&lt;/font&gt;" style="text;html=1;strokeColor=none;fillColor=none;align=left;verticalAlign=middle;whiteSpace=wrap;rounded=0;movable=1;resizable=1;rotatable=1;deletable=1;editable=1;locked=0;connectable=1;container=0;" parent="PHXaZqlkiY236tPAjjlE-46" vertex="1">
          <mxGeometry x="72" y="21" width="60" height="10" as="geometry" />
        </mxCell>
        <mxCell id="-irzvPiJJPFumrXj4F0A-120" value="&lt;span style=&quot;font-size: 8px;&quot;&gt;reset&lt;/span&gt;" style="text;html=1;strokeColor=none;fillColor=none;align=left;verticalAlign=middle;whiteSpace=wrap;rounded=0;movable=1;resizable=1;rotatable=1;deletable=1;editable=1;locked=0;connectable=1;container=0;" parent="PHXaZqlkiY236tPAjjlE-46" vertex="1">
          <mxGeometry x="72" y="41" width="60" height="10" as="geometry" />
        </mxCell>
        <mxCell id="PHXaZqlkiY236tPAjjlE-7" style="edgeStyle=orthogonalEdgeStyle;rounded=0;orthogonalLoop=1;jettySize=auto;html=1;entryX=0;entryY=0.5;entryDx=0;entryDy=0;movable=1;resizable=1;rotatable=1;deletable=1;editable=1;locked=0;connectable=1;endArrow=none;endFill=0;" edge="1" parent="PHXaZqlkiY236tPAjjlE-46" source="-irzvPiJJPFumrXj4F0A-121" target="-irzvPiJJPFumrXj4F0A-78">
          <mxGeometry relative="1" as="geometry">
            <mxPoint x="191.78431372549016" y="34" as="targetPoint" />
          </mxGeometry>
        </mxCell>
        <mxCell id="-irzvPiJJPFumrXj4F0A-121" value="&lt;span style=&quot;font-size: 8px;&quot;&gt;count&lt;/span&gt;" style="text;html=1;strokeColor=none;fillColor=none;align=right;verticalAlign=middle;whiteSpace=wrap;rounded=0;movable=1;resizable=1;rotatable=1;deletable=1;editable=1;locked=0;connectable=1;container=0;" parent="PHXaZqlkiY236tPAjjlE-46" vertex="1">
          <mxGeometry x="92" y="16" width="60" height="10" as="geometry" />
        </mxCell>
        <mxCell id="-irzvPiJJPFumrXj4F0A-122" value="&lt;font style=&quot;font-size: 8px;&quot;&gt;clock&lt;/font&gt;" style="text;html=1;strokeColor=none;fillColor=none;align=left;verticalAlign=middle;whiteSpace=wrap;rounded=0;movable=1;resizable=1;rotatable=1;deletable=1;editable=1;locked=0;connectable=1;container=0;" parent="PHXaZqlkiY236tPAjjlE-46" vertex="1">
          <mxGeometry x="142" y="136" width="60" height="10" as="geometry" />
        </mxCell>
        <mxCell id="-irzvPiJJPFumrXj4F0A-123" value="&lt;span style=&quot;font-size: 8px;&quot;&gt;reset&lt;/span&gt;" style="text;html=1;strokeColor=none;fillColor=none;align=left;verticalAlign=middle;whiteSpace=wrap;rounded=0;movable=1;resizable=1;rotatable=1;deletable=1;editable=1;locked=0;connectable=1;container=0;" parent="PHXaZqlkiY236tPAjjlE-46" vertex="1">
          <mxGeometry x="142" y="146" width="60" height="10" as="geometry" />
        </mxCell>
        <mxCell id="-irzvPiJJPFumrXj4F0A-124" value="&lt;font style=&quot;font-size: 8px;&quot;&gt;tdm_data&lt;/font&gt;" style="text;html=1;strokeColor=none;fillColor=none;align=left;verticalAlign=middle;whiteSpace=wrap;rounded=0;movable=1;resizable=1;rotatable=1;deletable=1;editable=1;locked=0;connectable=1;container=0;" parent="PHXaZqlkiY236tPAjjlE-46" vertex="1">
          <mxGeometry x="142" y="176" width="60" height="10" as="geometry" />
        </mxCell>
        <mxCell id="-irzvPiJJPFumrXj4F0A-125" value="" style="endArrow=none;html=1;rounded=0;endFill=0;movable=1;resizable=1;rotatable=1;deletable=1;editable=1;locked=0;connectable=1;entryX=0.005;entryY=0.515;entryDx=0;entryDy=0;entryPerimeter=0;" parent="PHXaZqlkiY236tPAjjlE-46" edge="1" target="PHXaZqlkiY236tPAjjlE-1">
          <mxGeometry width="50" height="50" relative="1" as="geometry">
            <mxPoint x="2" y="26" as="sourcePoint" />
            <mxPoint x="72" y="25.75999999999999" as="targetPoint" />
          </mxGeometry>
        </mxCell>
        <mxCell id="-irzvPiJJPFumrXj4F0A-129" value="" style="endArrow=none;html=1;rounded=0;endFill=0;movable=1;resizable=1;rotatable=1;deletable=1;editable=1;locked=0;connectable=1;" parent="PHXaZqlkiY236tPAjjlE-46" edge="1" source="PHXaZqlkiY236tPAjjlE-4">
          <mxGeometry width="50" height="50" relative="1" as="geometry">
            <mxPoint x="42" y="153" as="sourcePoint" />
            <mxPoint x="42" y="46" as="targetPoint" />
          </mxGeometry>
        </mxCell>
        <mxCell id="-irzvPiJJPFumrXj4F0A-134" value="" style="endArrow=none;html=1;rounded=0;endFill=0;movable=1;resizable=1;rotatable=1;deletable=1;editable=1;locked=0;connectable=1;" parent="PHXaZqlkiY236tPAjjlE-46" edge="1">
          <mxGeometry width="50" height="50" relative="1" as="geometry">
            <mxPoint x="2" y="181" as="sourcePoint" />
            <mxPoint x="142" y="180.76" as="targetPoint" />
          </mxGeometry>
        </mxCell>
        <mxCell id="-irzvPiJJPFumrXj4F0A-135" value="&lt;span style=&quot;font-size: 8px;&quot;&gt;D_in&lt;/span&gt;" style="text;html=1;strokeColor=none;fillColor=none;align=right;verticalAlign=middle;whiteSpace=wrap;rounded=0;movable=1;resizable=1;rotatable=1;deletable=1;editable=1;locked=0;connectable=1;container=0;" parent="PHXaZqlkiY236tPAjjlE-46" vertex="1">
          <mxGeometry x="162" y="136" width="60" height="10" as="geometry" />
        </mxCell>
        <mxCell id="-irzvPiJJPFumrXj4F0A-139" value="&lt;span style=&quot;font-size: 8px;&quot;&gt;ch4[15:0]&lt;/span&gt;" style="text;html=1;strokeColor=none;fillColor=none;align=left;verticalAlign=middle;whiteSpace=wrap;rounded=0;movable=1;resizable=1;rotatable=1;deletable=1;editable=1;locked=0;connectable=1;container=0;" parent="PHXaZqlkiY236tPAjjlE-46" vertex="1">
          <mxGeometry x="343" y="83" width="60" height="10" as="geometry" />
        </mxCell>
        <mxCell id="-irzvPiJJPFumrXj4F0A-140" value="&lt;span style=&quot;font-size: 8px;&quot;&gt;ch3[15:0]&lt;/span&gt;" style="text;html=1;strokeColor=none;fillColor=none;align=left;verticalAlign=middle;whiteSpace=wrap;rounded=0;movable=1;resizable=1;rotatable=1;deletable=1;editable=1;locked=0;connectable=1;container=0;" parent="PHXaZqlkiY236tPAjjlE-46" vertex="1">
          <mxGeometry x="343" y="70" width="60" height="10" as="geometry" />
        </mxCell>
        <mxCell id="-irzvPiJJPFumrXj4F0A-141" value="&lt;span style=&quot;font-size: 8px;&quot;&gt;ch1[15:0]&lt;/span&gt;" style="text;html=1;strokeColor=none;fillColor=none;align=left;verticalAlign=middle;whiteSpace=wrap;rounded=0;movable=1;resizable=1;rotatable=1;deletable=1;editable=1;locked=0;connectable=1;container=0;" parent="PHXaZqlkiY236tPAjjlE-46" vertex="1">
          <mxGeometry x="343" y="45" width="60" height="10" as="geometry" />
        </mxCell>
        <mxCell id="-irzvPiJJPFumrXj4F0A-142" value="&lt;span style=&quot;font-size: 8px;&quot;&gt;ch2[15:0]&lt;/span&gt;" style="text;html=1;strokeColor=none;fillColor=none;align=left;verticalAlign=middle;whiteSpace=wrap;rounded=0;movable=1;resizable=1;rotatable=1;deletable=1;editable=1;locked=0;connectable=1;container=0;" parent="PHXaZqlkiY236tPAjjlE-46" vertex="1">
          <mxGeometry x="343" y="57" width="60" height="10" as="geometry" />
        </mxCell>
        <mxCell id="-irzvPiJJPFumrXj4F0A-143" value="&lt;span style=&quot;font-size: 8px;&quot;&gt;ch0[15:0]&lt;/span&gt;" style="text;html=1;strokeColor=none;fillColor=none;align=left;verticalAlign=middle;whiteSpace=wrap;rounded=0;movable=1;resizable=1;rotatable=1;deletable=1;editable=1;locked=0;connectable=1;container=0;" parent="PHXaZqlkiY236tPAjjlE-46" vertex="1">
          <mxGeometry x="343" y="33" width="60" height="10" as="geometry" />
        </mxCell>
        <mxCell id="-irzvPiJJPFumrXj4F0A-144" value="&lt;span style=&quot;font-size: 8px;&quot;&gt;tdm_sync&lt;/span&gt;" style="text;html=1;strokeColor=none;fillColor=none;align=left;verticalAlign=middle;whiteSpace=wrap;rounded=0;movable=1;resizable=1;rotatable=1;deletable=1;editable=1;locked=0;connectable=1;container=0;" parent="PHXaZqlkiY236tPAjjlE-46" vertex="1">
          <mxGeometry y="92" width="60" height="10" as="geometry" />
        </mxCell>
        <mxCell id="-irzvPiJJPFumrXj4F0A-145" value="&lt;span style=&quot;font-size: 8px;&quot;&gt;tdm_data&lt;/span&gt;" style="text;html=1;strokeColor=none;fillColor=none;align=left;verticalAlign=middle;whiteSpace=wrap;rounded=0;movable=1;resizable=1;rotatable=1;deletable=1;editable=1;locked=0;connectable=1;container=0;" parent="PHXaZqlkiY236tPAjjlE-46" vertex="1">
          <mxGeometry y="170" width="60" height="10" as="geometry" />
        </mxCell>
        <mxCell id="-irzvPiJJPFumrXj4F0A-146" value="&lt;span style=&quot;font-size: 8px;&quot;&gt;tdm_clk&lt;/span&gt;" style="text;html=1;strokeColor=none;fillColor=none;align=left;verticalAlign=middle;whiteSpace=wrap;rounded=0;movable=1;resizable=1;rotatable=1;deletable=1;editable=1;locked=0;connectable=1;container=0;" parent="PHXaZqlkiY236tPAjjlE-46" vertex="1">
          <mxGeometry y="15" width="60" height="10" as="geometry" />
        </mxCell>
        <mxCell id="-irzvPiJJPFumrXj4F0A-147" value="&lt;span style=&quot;font-size: 8px;&quot;&gt;reset&lt;/span&gt;" style="text;html=1;strokeColor=none;fillColor=none;align=left;verticalAlign=middle;whiteSpace=wrap;rounded=0;movable=1;resizable=1;rotatable=1;deletable=1;editable=1;locked=0;connectable=1;container=0;" parent="PHXaZqlkiY236tPAjjlE-46" vertex="1">
          <mxGeometry y="35" width="60" height="10" as="geometry" />
        </mxCell>
        <mxCell id="-irzvPiJJPFumrXj4F0A-148" value="&lt;font color=&quot;#ff0000&quot;&gt;TDM&lt;/font&gt;" style="text;html=1;strokeColor=none;fillColor=none;align=center;verticalAlign=middle;whiteSpace=wrap;rounded=0;container=0;movable=1;resizable=1;rotatable=1;deletable=1;editable=1;locked=0;connectable=1;" parent="PHXaZqlkiY236tPAjjlE-46" vertex="1">
          <mxGeometry x="230" y="165" width="60" height="30" as="geometry" />
        </mxCell>
        <mxCell id="PHXaZqlkiY236tPAjjlE-2" style="edgeStyle=orthogonalEdgeStyle;rounded=0;orthogonalLoop=1;jettySize=auto;html=1;entryX=0;entryY=0.5;entryDx=0;entryDy=0;endArrow=none;endFill=0;movable=1;resizable=1;rotatable=1;deletable=1;editable=1;locked=0;connectable=1;" edge="1" parent="PHXaZqlkiY236tPAjjlE-46" source="PHXaZqlkiY236tPAjjlE-1" target="-irzvPiJJPFumrXj4F0A-119">
          <mxGeometry relative="1" as="geometry" />
        </mxCell>
        <mxCell id="PHXaZqlkiY236tPAjjlE-3" style="edgeStyle=orthogonalEdgeStyle;rounded=0;orthogonalLoop=1;jettySize=auto;html=1;entryX=0;entryY=0.5;entryDx=0;entryDy=0;endArrow=none;endFill=0;jumpStyle=arc;movable=1;resizable=1;rotatable=1;deletable=1;editable=1;locked=0;connectable=1;" edge="1" parent="PHXaZqlkiY236tPAjjlE-46" source="PHXaZqlkiY236tPAjjlE-1" target="-irzvPiJJPFumrXj4F0A-122">
          <mxGeometry relative="1" as="geometry">
            <mxPoint x="107" y="134" as="targetPoint" />
            <Array as="points">
              <mxPoint x="52" y="141" />
            </Array>
          </mxGeometry>
        </mxCell>
        <mxCell id="PHXaZqlkiY236tPAjjlE-1" value="" style="shape=waypoint;sketch=0;fillStyle=solid;size=6;pointerEvents=1;points=[];fillColor=none;resizable=1;rotatable=1;perimeter=centerPerimeter;snapToPoint=1;movable=1;deletable=1;editable=1;locked=0;connectable=1;" vertex="1" parent="PHXaZqlkiY236tPAjjlE-46">
          <mxGeometry x="42" y="16" width="20" height="20" as="geometry" />
        </mxCell>
        <mxCell id="PHXaZqlkiY236tPAjjlE-6" style="edgeStyle=orthogonalEdgeStyle;rounded=0;orthogonalLoop=1;jettySize=auto;html=1;entryX=0;entryY=0.5;entryDx=0;entryDy=0;endArrow=none;endFill=0;movable=1;resizable=1;rotatable=1;deletable=1;editable=1;locked=0;connectable=1;" edge="1" parent="PHXaZqlkiY236tPAjjlE-46" source="PHXaZqlkiY236tPAjjlE-4" target="-irzvPiJJPFumrXj4F0A-120">
          <mxGeometry relative="1" as="geometry">
            <mxPoint x="66" y="47" as="targetPoint" />
          </mxGeometry>
        </mxCell>
        <mxCell id="PHXaZqlkiY236tPAjjlE-11" style="edgeStyle=orthogonalEdgeStyle;rounded=0;orthogonalLoop=1;jettySize=auto;html=1;entryX=0;entryY=0.5;entryDx=0;entryDy=0;endArrow=none;endFill=0;jumpStyle=arc;movable=1;resizable=1;rotatable=1;deletable=1;editable=1;locked=0;connectable=1;" edge="1" parent="PHXaZqlkiY236tPAjjlE-46" source="PHXaZqlkiY236tPAjjlE-4" target="-irzvPiJJPFumrXj4F0A-123">
          <mxGeometry relative="1" as="geometry">
            <Array as="points">
              <mxPoint x="42" y="151" />
            </Array>
          </mxGeometry>
        </mxCell>
        <mxCell id="PHXaZqlkiY236tPAjjlE-4" value="" style="shape=waypoint;sketch=0;fillStyle=solid;size=6;pointerEvents=1;points=[];fillColor=none;resizable=1;rotatable=1;perimeter=centerPerimeter;snapToPoint=1;movable=1;deletable=1;editable=1;locked=0;connectable=1;" vertex="1" parent="PHXaZqlkiY236tPAjjlE-46">
          <mxGeometry x="32" y="36" width="20" height="20" as="geometry" />
        </mxCell>
        <mxCell id="PHXaZqlkiY236tPAjjlE-8" style="edgeStyle=orthogonalEdgeStyle;rounded=0;orthogonalLoop=1;jettySize=auto;html=1;exitX=0;exitY=1;exitDx=0;exitDy=0;entryX=0.008;entryY=0.539;entryDx=0;entryDy=0;entryPerimeter=0;endArrow=none;endFill=0;movable=1;resizable=1;rotatable=1;deletable=1;editable=1;locked=0;connectable=1;" edge="1" parent="PHXaZqlkiY236tPAjjlE-46">
          <mxGeometry relative="1" as="geometry">
            <mxPoint x="1" y="46" as="sourcePoint" />
            <mxPoint x="41" y="47" as="targetPoint" />
            <Array as="points">
              <mxPoint x="41" y="46" />
            </Array>
          </mxGeometry>
        </mxCell>
        <mxCell id="PHXaZqlkiY236tPAjjlE-16" style="edgeStyle=orthogonalEdgeStyle;rounded=0;orthogonalLoop=1;jettySize=auto;html=1;exitX=0.5;exitY=0;exitDx=0;exitDy=0;endArrow=none;endFill=0;movable=1;resizable=1;rotatable=1;deletable=1;editable=1;locked=0;connectable=1;" edge="1" parent="PHXaZqlkiY236tPAjjlE-46">
          <mxGeometry relative="1" as="geometry">
            <mxPoint x="388" y="68" as="targetPoint" />
            <mxPoint x="337" y="68" as="sourcePoint" />
          </mxGeometry>
        </mxCell>
        <mxCell id="PHXaZqlkiY236tPAjjlE-18" style="edgeStyle=orthogonalEdgeStyle;rounded=0;orthogonalLoop=1;jettySize=auto;html=1;exitX=0.25;exitY=1;exitDx=0;exitDy=0;exitPerimeter=0;endArrow=none;endFill=0;movable=1;resizable=1;rotatable=1;deletable=1;editable=1;locked=0;connectable=1;" edge="1" parent="PHXaZqlkiY236tPAjjlE-46">
          <mxGeometry relative="1" as="geometry">
            <mxPoint x="388" y="44.5333333333333" as="targetPoint" />
            <mxPoint x="337" y="44.5" as="sourcePoint" />
          </mxGeometry>
        </mxCell>
        <mxCell id="PHXaZqlkiY236tPAjjlE-19" style="edgeStyle=orthogonalEdgeStyle;rounded=0;orthogonalLoop=1;jettySize=auto;html=1;exitX=0.75;exitY=1;exitDx=0;exitDy=0;exitPerimeter=0;endArrow=none;endFill=0;movable=1;resizable=1;rotatable=1;deletable=1;editable=1;locked=0;connectable=1;" edge="1" parent="PHXaZqlkiY236tPAjjlE-46">
          <mxGeometry relative="1" as="geometry">
            <mxPoint x="388" y="80.4666666666667" as="targetPoint" />
            <mxPoint x="337.00000000000045" y="80.49999999999977" as="sourcePoint" />
          </mxGeometry>
        </mxCell>
        <mxCell id="PHXaZqlkiY236tPAjjlE-20" style="edgeStyle=orthogonalEdgeStyle;rounded=0;orthogonalLoop=1;jettySize=auto;html=1;exitX=1;exitY=1;exitDx=0;exitDy=0;exitPerimeter=0;endArrow=none;endFill=0;movable=1;resizable=1;rotatable=1;deletable=1;editable=1;locked=0;connectable=1;" edge="1" parent="PHXaZqlkiY236tPAjjlE-46">
          <mxGeometry relative="1" as="geometry">
            <mxPoint x="388" y="93" as="targetPoint" />
            <mxPoint x="337.00000000000045" y="92.99999999999977" as="sourcePoint" />
          </mxGeometry>
        </mxCell>
        <mxCell id="PHXaZqlkiY236tPAjjlE-14" value="" style="verticalLabelPosition=middle;verticalAlign=middle;html=1;shape=trapezoid;perimeter=trapezoidPerimeter;whiteSpace=wrap;size=0.23;arcSize=10;flipV=1;labelPosition=center;align=center;rotation=90;points=[[0,0,0,0,0],[0,0.25,0,0,0],[0,0.5,0,0,0],[0,0.75,0,0,0],[0,1,0,0,0],[0.25,0,0,0,0],[0.25,1,0,0,0],[0.48,0,0,0,-19],[0.5,0,0,0,0],[0.5,1,0,0,0],[0.75,0,0,0,0],[0.75,1,0,0,0],[1,0,0,0,0],[1,0.25,0,0,0],[1,0.33,0,0,0],[1,0.5,0,0,0],[1,0.67,0,0,0],[1,0.75,0,0,0],[1,1,0,0,0]];movable=1;resizable=1;rotatable=1;deletable=1;editable=1;locked=0;connectable=1;" vertex="1" parent="PHXaZqlkiY236tPAjjlE-46">
          <mxGeometry x="302" y="64" width="62" height="8" as="geometry" />
        </mxCell>
        <mxCell id="PHXaZqlkiY236tPAjjlE-12" style="edgeStyle=orthogonalEdgeStyle;rounded=0;orthogonalLoop=1;jettySize=auto;html=1;exitX=1;exitY=0.5;exitDx=0;exitDy=0;fillColor=#0050ef;strokeColor=#001DBC;entryX=0.116;entryY=0.427;entryDx=0;entryDy=0;entryPerimeter=0;movable=1;resizable=1;rotatable=1;deletable=1;editable=1;locked=0;connectable=1;endArrow=none;endFill=0;" edge="1" parent="PHXaZqlkiY236tPAjjlE-46" source="-irzvPiJJPFumrXj4F0A-106" target="PHXaZqlkiY236tPAjjlE-14">
          <mxGeometry relative="1" as="geometry">
            <mxPoint x="269" y="8" as="sourcePoint" />
            <mxPoint x="307" y="50" as="targetPoint" />
            <Array as="points">
              <mxPoint x="306" y="21" />
              <mxPoint x="306" y="5" />
              <mxPoint x="332" y="5" />
              <mxPoint x="332" y="26" />
              <mxPoint x="332" y="26" />
            </Array>
          </mxGeometry>
        </mxCell>
        <mxCell id="PHXaZqlkiY236tPAjjlE-13" style="edgeStyle=orthogonalEdgeStyle;rounded=0;orthogonalLoop=1;jettySize=auto;html=1;exitX=1;exitY=0.5;exitDx=0;exitDy=0;entryX=0.5;entryY=1;entryDx=0;entryDy=0;fillColor=#a20025;strokeColor=#6F0000;endArrow=none;endFill=0;jumpStyle=arc;movable=1;resizable=1;rotatable=1;deletable=1;editable=1;locked=0;connectable=1;" edge="1" parent="PHXaZqlkiY236tPAjjlE-46" source="-irzvPiJJPFumrXj4F0A-135" target="PHXaZqlkiY236tPAjjlE-14">
          <mxGeometry relative="1" as="geometry">
            <mxPoint x="320.75" y="55.99999999999977" as="targetPoint" />
            <Array as="points">
              <mxPoint x="304" y="141" />
              <mxPoint x="304" y="68" />
            </Array>
          </mxGeometry>
        </mxCell>
        <mxCell id="PHXaZqlkiY236tPAjjlE-22" style="edgeStyle=orthogonalEdgeStyle;rounded=0;orthogonalLoop=1;jettySize=auto;html=1;exitX=0.75;exitY=1;exitDx=0;exitDy=0;exitPerimeter=0;endArrow=none;endFill=0;movable=1;resizable=1;rotatable=1;deletable=1;editable=1;locked=0;connectable=1;" edge="1" parent="PHXaZqlkiY236tPAjjlE-46">
          <mxGeometry relative="1" as="geometry">
            <mxPoint x="388" y="56.4666666666667" as="targetPoint" />
            <mxPoint x="337.00000000000045" y="56.49999999999977" as="sourcePoint" />
          </mxGeometry>
        </mxCell>
        <mxCell id="PHXaZqlkiY236tPAjjlE-34" style="edgeStyle=orthogonalEdgeStyle;rounded=0;orthogonalLoop=1;jettySize=auto;html=1;exitX=1;exitY=0.5;exitDx=0;exitDy=0;endArrow=none;endFill=0;jumpStyle=arc;movable=1;resizable=1;rotatable=1;deletable=1;editable=1;locked=0;connectable=1;" edge="1" parent="PHXaZqlkiY236tPAjjlE-46" source="PHXaZqlkiY236tPAjjlE-30">
          <mxGeometry relative="1" as="geometry">
            <mxPoint x="388" y="122" as="targetPoint" />
            <Array as="points">
              <mxPoint x="295" y="85" />
              <mxPoint x="295" y="122" />
            </Array>
          </mxGeometry>
        </mxCell>
        <mxCell id="PHXaZqlkiY236tPAjjlE-30" value="&lt;span style=&quot;font-size: 8px;&quot;&gt;ready&lt;/span&gt;" style="text;html=1;strokeColor=none;fillColor=none;align=right;verticalAlign=middle;whiteSpace=wrap;rounded=0;movable=1;resizable=1;rotatable=1;deletable=1;editable=1;locked=0;connectable=1;container=0;" vertex="1" parent="PHXaZqlkiY236tPAjjlE-46">
          <mxGeometry x="222" y="80" width="60" height="10" as="geometry" />
        </mxCell>
        <mxCell id="PHXaZqlkiY236tPAjjlE-35" value="&lt;span style=&quot;font-size: 8px;&quot;&gt;ready&lt;/span&gt;" style="text;html=1;strokeColor=none;fillColor=none;align=left;verticalAlign=middle;whiteSpace=wrap;rounded=0;movable=1;resizable=1;rotatable=1;deletable=1;editable=1;locked=0;connectable=1;container=0;" vertex="1" parent="PHXaZqlkiY236tPAjjlE-46">
          <mxGeometry x="345" y="111" width="60" height="10" as="geometry" />
        </mxCell>
        <mxCell id="PHXaZqlkiY236tPAjjlE-37" value="&lt;span style=&quot;font-size: 8px;&quot;&gt;tdm_sync&lt;/span&gt;" style="text;html=1;strokeColor=none;fillColor=none;align=left;verticalAlign=middle;whiteSpace=wrap;rounded=0;movable=1;resizable=1;rotatable=1;deletable=1;editable=1;locked=0;connectable=1;container=0;" vertex="1" parent="PHXaZqlkiY236tPAjjlE-46">
          <mxGeometry x="72" y="75" width="60" height="10" as="geometry" />
        </mxCell>
        <mxCell id="PHXaZqlkiY236tPAjjlE-43" value="" style="edgeStyle=orthogonalEdgeStyle;rounded=0;orthogonalLoop=1;jettySize=auto;html=1;exitX=0;exitY=0.5;exitDx=0;exitDy=0;endArrow=none;endFill=0;fillColor=#6a00ff;strokeColor=#3700CC;" edge="1" parent="PHXaZqlkiY236tPAjjlE-46" source="PHXaZqlkiY236tPAjjlE-37" target="PHXaZqlkiY236tPAjjlE-38">
          <mxGeometry relative="1" as="geometry">
            <mxPoint x="65" y="112" as="targetPoint" />
            <mxPoint x="72" y="80" as="sourcePoint" />
          </mxGeometry>
        </mxCell>
        <mxCell id="PHXaZqlkiY236tPAjjlE-44" style="edgeStyle=orthogonalEdgeStyle;rounded=0;orthogonalLoop=1;jettySize=auto;html=1;endArrow=none;endFill=0;fillColor=#6a00ff;strokeColor=#3700CC;jumpStyle=arc;" edge="1" parent="PHXaZqlkiY236tPAjjlE-46" source="PHXaZqlkiY236tPAjjlE-38">
          <mxGeometry relative="1" as="geometry">
            <mxPoint x="1" y="105" as="targetPoint" />
          </mxGeometry>
        </mxCell>
        <mxCell id="PHXaZqlkiY236tPAjjlE-45" style="edgeStyle=orthogonalEdgeStyle;rounded=0;orthogonalLoop=1;jettySize=auto;html=1;entryX=0;entryY=0.5;entryDx=0;entryDy=0;fillColor=#6a00ff;strokeColor=#3700CC;endArrow=none;endFill=0;" edge="1" parent="PHXaZqlkiY236tPAjjlE-46" source="PHXaZqlkiY236tPAjjlE-38" target="-irzvPiJJPFumrXj4F0A-105">
          <mxGeometry relative="1" as="geometry">
            <Array as="points">
              <mxPoint x="170" y="105" />
              <mxPoint x="170" y="71" />
            </Array>
          </mxGeometry>
        </mxCell>
        <mxCell id="PHXaZqlkiY236tPAjjlE-38" value="" style="shape=waypoint;sketch=0;fillStyle=solid;size=6;pointerEvents=1;points=[];fillColor=none;resizable=1;rotatable=1;perimeter=centerPerimeter;snapToPoint=1;movable=1;deletable=1;editable=1;locked=0;connectable=1;" vertex="1" parent="PHXaZqlkiY236tPAjjlE-46">
          <mxGeometry x="54" y="95" width="20" height="20" as="geometry" />
        </mxCell>
        <mxCell id="PHXaZqlkiY236tPAjjlE-49" value="" style="group;movable=0;resizable=0;rotatable=0;deletable=0;editable=0;locked=1;connectable=0;" vertex="1" connectable="0" parent="1">
          <mxGeometry x="279" y="151" width="500" height="326" as="geometry" />
        </mxCell>
        <mxCell id="-irzvPiJJPFumrXj4F0A-79" value="IDLE/&lt;br&gt;ready = 0" style="strokeWidth=2;html=1;shape=mxgraph.flowchart.start_2;whiteSpace=wrap;movable=0;resizable=0;rotatable=0;deletable=0;editable=0;locked=1;connectable=0;" parent="PHXaZqlkiY236tPAjjlE-49" vertex="1">
          <mxGeometry x="20" y="66" width="80" height="60" as="geometry" />
        </mxCell>
        <mxCell id="-irzvPiJJPFumrXj4F0A-80" value="CH0_DEC/&lt;br&gt;CH0[15:0]" style="strokeWidth=2;html=1;shape=mxgraph.flowchart.start_2;whiteSpace=wrap;movable=0;resizable=0;rotatable=0;deletable=0;editable=0;locked=1;connectable=0;" parent="PHXaZqlkiY236tPAjjlE-49" vertex="1">
          <mxGeometry x="170" y="66" width="80" height="60" as="geometry" />
        </mxCell>
        <mxCell id="-irzvPiJJPFumrXj4F0A-81" value="CH1_DEC/&lt;br&gt;CH1[15:0]" style="strokeWidth=2;html=1;shape=mxgraph.flowchart.start_2;whiteSpace=wrap;movable=0;resizable=0;rotatable=0;deletable=0;editable=0;locked=1;connectable=0;" parent="PHXaZqlkiY236tPAjjlE-49" vertex="1">
          <mxGeometry x="170" y="146" width="80" height="60" as="geometry" />
        </mxCell>
        <mxCell id="-irzvPiJJPFumrXj4F0A-82" value="CH4_DEC/&lt;br&gt;ready=1,&lt;br&gt;CH4[15:0]" style="strokeWidth=2;html=1;shape=mxgraph.flowchart.start_2;whiteSpace=wrap;movable=0;resizable=0;rotatable=0;deletable=0;editable=0;locked=1;connectable=0;" parent="PHXaZqlkiY236tPAjjlE-49" vertex="1">
          <mxGeometry x="300" y="146" width="80" height="60" as="geometry" />
        </mxCell>
        <mxCell id="-irzvPiJJPFumrXj4F0A-83" value="CH3_DEC/&lt;br&gt;CH3[15:0]" style="strokeWidth=2;html=1;shape=mxgraph.flowchart.start_2;whiteSpace=wrap;movable=0;resizable=0;rotatable=0;deletable=0;editable=0;locked=1;connectable=0;" parent="PHXaZqlkiY236tPAjjlE-49" vertex="1">
          <mxGeometry x="300" y="226" width="80" height="60" as="geometry" />
        </mxCell>
        <mxCell id="-irzvPiJJPFumrXj4F0A-84" value="CH2_DEC/&lt;br&gt;CH2[15:0]" style="strokeWidth=2;html=1;shape=mxgraph.flowchart.start_2;whiteSpace=wrap;movable=0;resizable=0;rotatable=0;deletable=0;editable=0;locked=1;connectable=0;" parent="PHXaZqlkiY236tPAjjlE-49" vertex="1">
          <mxGeometry x="170" y="226" width="80" height="60" as="geometry" />
        </mxCell>
        <mxCell id="-irzvPiJJPFumrXj4F0A-85" value="" style="endArrow=classic;html=1;rounded=0;edgeStyle=orthogonalEdgeStyle;curved=1;entryX=1;entryY=0.5;entryDx=0;entryDy=0;entryPerimeter=0;exitX=0.855;exitY=0.855;exitDx=0;exitDy=0;exitPerimeter=0;movable=0;resizable=0;rotatable=0;deletable=0;editable=0;locked=1;connectable=0;" parent="PHXaZqlkiY236tPAjjlE-49" source="-irzvPiJJPFumrXj4F0A-80" target="-irzvPiJJPFumrXj4F0A-81" edge="1">
          <mxGeometry width="50" height="50" relative="1" as="geometry">
            <mxPoint x="300" y="86" as="sourcePoint" />
            <mxPoint x="396" y="86" as="targetPoint" />
            <Array as="points">
              <mxPoint x="238" y="116" />
              <mxPoint x="290" y="116" />
              <mxPoint x="290" y="176" />
            </Array>
          </mxGeometry>
        </mxCell>
        <mxCell id="-irzvPiJJPFumrXj4F0A-86" value="" style="endArrow=classic;html=1;rounded=0;edgeStyle=orthogonalEdgeStyle;curved=1;entryX=1;entryY=0.5;entryDx=0;entryDy=0;entryPerimeter=0;exitX=0.855;exitY=0.855;exitDx=0;exitDy=0;exitPerimeter=0;movable=0;resizable=0;rotatable=0;deletable=0;editable=0;locked=1;connectable=0;" parent="PHXaZqlkiY236tPAjjlE-49" source="-irzvPiJJPFumrXj4F0A-81" target="-irzvPiJJPFumrXj4F0A-84" edge="1">
          <mxGeometry width="50" height="50" relative="1" as="geometry">
            <mxPoint x="250" y="196" as="sourcePoint" />
            <mxPoint x="250" y="276" as="targetPoint" />
            <Array as="points">
              <mxPoint x="238" y="196" />
              <mxPoint x="290" y="196" />
              <mxPoint x="290" y="256" />
            </Array>
          </mxGeometry>
        </mxCell>
        <mxCell id="-irzvPiJJPFumrXj4F0A-87" value="" style="endArrow=classic;html=1;rounded=0;edgeStyle=orthogonalEdgeStyle;curved=1;entryX=0.5;entryY=1;entryDx=0;entryDy=0;entryPerimeter=0;exitX=0.5;exitY=1;exitDx=0;exitDy=0;exitPerimeter=0;movable=0;resizable=0;rotatable=0;deletable=0;editable=0;locked=1;connectable=0;" parent="PHXaZqlkiY236tPAjjlE-49" source="-irzvPiJJPFumrXj4F0A-84" target="-irzvPiJJPFumrXj4F0A-83" edge="1">
          <mxGeometry width="50" height="50" relative="1" as="geometry">
            <mxPoint x="248" y="207" as="sourcePoint" />
            <mxPoint x="260" y="266" as="targetPoint" />
            <Array as="points">
              <mxPoint x="210" y="326" />
              <mxPoint x="340" y="326" />
            </Array>
          </mxGeometry>
        </mxCell>
        <mxCell id="-irzvPiJJPFumrXj4F0A-88" value="" style="endArrow=classic;html=1;rounded=0;edgeStyle=orthogonalEdgeStyle;curved=1;exitX=1;exitY=0.5;exitDx=0;exitDy=0;exitPerimeter=0;entryX=1;entryY=0.5;entryDx=0;entryDy=0;entryPerimeter=0;movable=0;resizable=0;rotatable=0;deletable=0;editable=0;locked=1;connectable=0;" parent="PHXaZqlkiY236tPAjjlE-49" source="-irzvPiJJPFumrXj4F0A-83" target="-irzvPiJJPFumrXj4F0A-82" edge="1">
          <mxGeometry width="50" height="50" relative="1" as="geometry">
            <mxPoint x="410" y="187" as="sourcePoint" />
            <mxPoint x="450" y="276" as="targetPoint" />
            <Array as="points">
              <mxPoint x="420" y="256" />
              <mxPoint x="420" y="176" />
            </Array>
          </mxGeometry>
        </mxCell>
        <mxCell id="-irzvPiJJPFumrXj4F0A-89" value="" style="endArrow=classic;html=1;rounded=0;entryX=0;entryY=0.5;entryDx=0;entryDy=0;entryPerimeter=0;exitX=1;exitY=0.5;exitDx=0;exitDy=0;exitPerimeter=0;movable=0;resizable=0;rotatable=0;deletable=0;editable=0;locked=1;connectable=0;" parent="PHXaZqlkiY236tPAjjlE-49" source="-irzvPiJJPFumrXj4F0A-79" target="-irzvPiJJPFumrXj4F0A-80" edge="1">
          <mxGeometry width="50" height="50" relative="1" as="geometry">
            <mxPoint x="100" y="121" as="sourcePoint" />
            <mxPoint x="150" y="71" as="targetPoint" />
          </mxGeometry>
        </mxCell>
        <mxCell id="-irzvPiJJPFumrXj4F0A-90" value="" style="endArrow=classic;html=1;rounded=0;edgeStyle=orthogonalEdgeStyle;curved=1;exitX=0.5;exitY=0;exitDx=0;exitDy=0;exitPerimeter=0;entryX=0.5;entryY=0;entryDx=0;entryDy=0;entryPerimeter=0;movable=0;resizable=0;rotatable=0;deletable=0;editable=0;locked=1;connectable=0;" parent="PHXaZqlkiY236tPAjjlE-49" source="-irzvPiJJPFumrXj4F0A-82" target="-irzvPiJJPFumrXj4F0A-79" edge="1">
          <mxGeometry width="50" height="50" relative="1" as="geometry">
            <mxPoint x="330" y="116" as="sourcePoint" />
            <mxPoint x="330" y="36" as="targetPoint" />
            <Array as="points">
              <mxPoint x="340" y="26" />
              <mxPoint x="60" y="26" />
            </Array>
          </mxGeometry>
        </mxCell>
        <mxCell id="-irzvPiJJPFumrXj4F0A-91" value="tdm_sync" style="text;html=1;strokeColor=none;fillColor=none;align=center;verticalAlign=middle;whiteSpace=wrap;rounded=0;movable=0;resizable=0;rotatable=0;deletable=0;editable=0;locked=1;connectable=0;" parent="PHXaZqlkiY236tPAjjlE-49" vertex="1">
          <mxGeometry x="100" y="76" width="60" height="30" as="geometry" />
        </mxCell>
        <mxCell id="-irzvPiJJPFumrXj4F0A-92" value="" style="endArrow=classic;html=1;rounded=0;edgeStyle=orthogonalEdgeStyle;curved=1;entryX=0.145;entryY=0.855;entryDx=0;entryDy=0;entryPerimeter=0;exitX=0.145;exitY=0.145;exitDx=0;exitDy=0;exitPerimeter=0;movable=0;resizable=0;rotatable=0;deletable=0;editable=0;locked=1;connectable=0;" parent="PHXaZqlkiY236tPAjjlE-49" source="-irzvPiJJPFumrXj4F0A-79" target="-irzvPiJJPFumrXj4F0A-79" edge="1">
          <mxGeometry width="50" height="50" relative="1" as="geometry">
            <mxPoint x="-110.03" y="176" as="sourcePoint" />
            <mxPoint x="19.970000000000027" y="176" as="targetPoint" />
            <Array as="points">
              <mxPoint x="32" y="76" />
              <mxPoint y="76" />
              <mxPoint y="117" />
            </Array>
          </mxGeometry>
        </mxCell>
        <mxCell id="-irzvPiJJPFumrXj4F0A-95" value="count[3:0]=4&#39;b1111" style="text;html=1;strokeColor=none;fillColor=none;align=center;verticalAlign=middle;whiteSpace=wrap;rounded=0;movable=0;resizable=0;rotatable=0;deletable=0;editable=0;locked=1;connectable=0;" parent="PHXaZqlkiY236tPAjjlE-49" vertex="1">
          <mxGeometry x="250" y="116" width="60" height="30" as="geometry" />
        </mxCell>
        <mxCell id="-irzvPiJJPFumrXj4F0A-96" value="count[3:0]=4&#39;b1111" style="text;html=1;strokeColor=none;fillColor=none;align=center;verticalAlign=middle;whiteSpace=wrap;rounded=0;movable=0;resizable=0;rotatable=0;deletable=0;editable=0;locked=1;connectable=0;" parent="PHXaZqlkiY236tPAjjlE-49" vertex="1">
          <mxGeometry x="250" y="206" width="60" height="30" as="geometry" />
        </mxCell>
        <mxCell id="-irzvPiJJPFumrXj4F0A-97" value="count[3:0]=4&#39;b1111" style="text;html=1;strokeColor=none;fillColor=none;align=center;verticalAlign=middle;whiteSpace=wrap;rounded=0;movable=0;resizable=0;rotatable=0;deletable=0;editable=0;locked=1;connectable=0;" parent="PHXaZqlkiY236tPAjjlE-49" vertex="1">
          <mxGeometry x="250" y="296" width="60" height="30" as="geometry" />
        </mxCell>
        <mxCell id="-irzvPiJJPFumrXj4F0A-98" value="count[3:0]=4&#39;b1111" style="text;html=1;strokeColor=none;fillColor=none;align=center;verticalAlign=middle;whiteSpace=wrap;rounded=0;movable=0;resizable=0;rotatable=0;deletable=0;editable=0;locked=1;connectable=0;" parent="PHXaZqlkiY236tPAjjlE-49" vertex="1">
          <mxGeometry x="440" y="176" width="60" height="30" as="geometry" />
        </mxCell>
        <mxCell id="-irzvPiJJPFumrXj4F0A-99" value="count[3:0]=4&#39;b1111" style="text;html=1;strokeColor=none;fillColor=none;align=center;verticalAlign=middle;whiteSpace=wrap;rounded=0;movable=0;resizable=0;rotatable=0;deletable=0;editable=0;locked=1;connectable=0;" parent="PHXaZqlkiY236tPAjjlE-49" vertex="1">
          <mxGeometry x="163" width="60" height="30" as="geometry" />
        </mxCell>
        <mxCell id="-irzvPiJJPFumrXj4F0A-100" value="" style="endArrow=classic;html=1;rounded=0;edgeStyle=orthogonalEdgeStyle;curved=1;exitX=1;exitY=0.5;exitDx=0;exitDy=0;exitPerimeter=0;entryX=0.5;entryY=0;entryDx=0;entryDy=0;entryPerimeter=0;movable=0;resizable=0;rotatable=0;deletable=0;editable=0;locked=1;connectable=0;" parent="PHXaZqlkiY236tPAjjlE-49" source="-irzvPiJJPFumrXj4F0A-80" target="-irzvPiJJPFumrXj4F0A-80" edge="1">
          <mxGeometry width="50" height="50" relative="1" as="geometry">
            <mxPoint x="350" y="156" as="sourcePoint" />
            <mxPoint x="70" y="76" as="targetPoint" />
            <Array as="points">
              <mxPoint x="270" y="96" />
              <mxPoint x="270" y="46" />
              <mxPoint x="210" y="46" />
            </Array>
          </mxGeometry>
        </mxCell>
        <mxCell id="-irzvPiJJPFumrXj4F0A-101" value="" style="endArrow=classic;html=1;rounded=0;edgeStyle=orthogonalEdgeStyle;curved=1;exitX=0.145;exitY=0.855;exitDx=0;exitDy=0;exitPerimeter=0;entryX=0.145;entryY=0.145;entryDx=0;entryDy=0;entryPerimeter=0;movable=0;resizable=0;rotatable=0;deletable=0;editable=0;locked=1;connectable=0;" parent="PHXaZqlkiY236tPAjjlE-49" source="-irzvPiJJPFumrXj4F0A-81" target="-irzvPiJJPFumrXj4F0A-81" edge="1">
          <mxGeometry width="50" height="50" relative="1" as="geometry">
            <mxPoint x="120.02999999999997" y="296" as="sourcePoint" />
            <mxPoint x="80.02999999999997" y="266" as="targetPoint" />
            <Array as="points">
              <mxPoint x="182" y="206" />
              <mxPoint x="140" y="206" />
              <mxPoint x="140" y="136" />
              <mxPoint x="182" y="136" />
            </Array>
          </mxGeometry>
        </mxCell>
        <mxCell id="-irzvPiJJPFumrXj4F0A-102" value="" style="endArrow=classic;html=1;rounded=0;edgeStyle=orthogonalEdgeStyle;curved=1;exitX=0.145;exitY=0.855;exitDx=0;exitDy=0;exitPerimeter=0;entryX=0.145;entryY=0.145;entryDx=0;entryDy=0;entryPerimeter=0;movable=0;resizable=0;rotatable=0;deletable=0;editable=0;locked=1;connectable=0;" parent="PHXaZqlkiY236tPAjjlE-49" source="-irzvPiJJPFumrXj4F0A-84" target="-irzvPiJJPFumrXj4F0A-84" edge="1">
          <mxGeometry width="50" height="50" relative="1" as="geometry">
            <mxPoint x="160" y="277" as="sourcePoint" />
            <mxPoint x="160" y="235" as="targetPoint" />
            <Array as="points">
              <mxPoint x="182" y="286" />
              <mxPoint x="140" y="286" />
              <mxPoint x="140" y="216" />
              <mxPoint x="182" y="216" />
            </Array>
          </mxGeometry>
        </mxCell>
        <mxCell id="-irzvPiJJPFumrXj4F0A-103" value="" style="endArrow=classic;html=1;rounded=0;edgeStyle=orthogonalEdgeStyle;curved=1;exitX=1;exitY=0.5;exitDx=0;exitDy=0;exitPerimeter=0;entryX=0.5;entryY=1;entryDx=0;entryDy=0;entryPerimeter=0;movable=0;resizable=0;rotatable=0;deletable=0;editable=0;locked=1;connectable=0;" parent="PHXaZqlkiY236tPAjjlE-49" source="-irzvPiJJPFumrXj4F0A-83" target="-irzvPiJJPFumrXj4F0A-83" edge="1">
          <mxGeometry width="50" height="50" relative="1" as="geometry">
            <mxPoint x="460" y="256" as="sourcePoint" />
            <mxPoint x="420" y="226" as="targetPoint" />
            <Array as="points">
              <mxPoint x="400" y="256" />
              <mxPoint x="400" y="306" />
              <mxPoint x="340" y="306" />
            </Array>
          </mxGeometry>
        </mxCell>
        <mxCell id="-irzvPiJJPFumrXj4F0A-104" value="" style="endArrow=classic;html=1;rounded=0;edgeStyle=orthogonalEdgeStyle;curved=1;exitX=0.5;exitY=0;exitDx=0;exitDy=0;exitPerimeter=0;entryX=1;entryY=0.5;entryDx=0;entryDy=0;entryPerimeter=0;movable=0;resizable=0;rotatable=0;deletable=0;editable=0;locked=1;connectable=0;" parent="PHXaZqlkiY236tPAjjlE-49" source="-irzvPiJJPFumrXj4F0A-82" target="-irzvPiJJPFumrXj4F0A-82" edge="1">
          <mxGeometry width="50" height="50" relative="1" as="geometry">
            <mxPoint x="430" y="106" as="sourcePoint" />
            <mxPoint x="390" y="136" as="targetPoint" />
            <Array as="points">
              <mxPoint x="340" y="116" />
              <mxPoint x="400" y="116" />
              <mxPoint x="400" y="176" />
            </Array>
          </mxGeometry>
        </mxCell>
        <mxCell id="PHXaZqlkiY236tPAjjlE-24" value="count[3:0]&amp;lt;4&#39;b1111" style="text;html=1;strokeColor=none;fillColor=none;align=center;verticalAlign=middle;whiteSpace=wrap;rounded=0;movable=0;resizable=0;rotatable=0;deletable=0;editable=0;locked=1;connectable=0;" vertex="1" parent="PHXaZqlkiY236tPAjjlE-49">
          <mxGeometry x="251" y="58" width="60" height="30" as="geometry" />
        </mxCell>
        <mxCell id="PHXaZqlkiY236tPAjjlE-26" value="count[3:0]&amp;lt;4&#39;b1111" style="text;html=1;strokeColor=none;fillColor=none;align=center;verticalAlign=middle;whiteSpace=wrap;rounded=0;movable=0;resizable=0;rotatable=0;deletable=0;editable=0;locked=1;connectable=0;" vertex="1" parent="PHXaZqlkiY236tPAjjlE-49">
          <mxGeometry x="109" y="163" width="60" height="30" as="geometry" />
        </mxCell>
        <mxCell id="PHXaZqlkiY236tPAjjlE-27" value="count[3:0]&amp;lt;4&#39;b1111" style="text;html=1;strokeColor=none;fillColor=none;align=center;verticalAlign=middle;whiteSpace=wrap;rounded=0;movable=0;resizable=0;rotatable=0;deletable=0;editable=0;locked=1;connectable=0;" vertex="1" parent="PHXaZqlkiY236tPAjjlE-49">
          <mxGeometry x="110" y="239" width="60" height="30" as="geometry" />
        </mxCell>
        <mxCell id="PHXaZqlkiY236tPAjjlE-28" value="count[3:0]&amp;lt;4&#39;b1111" style="text;html=1;strokeColor=none;fillColor=none;align=center;verticalAlign=middle;whiteSpace=wrap;rounded=0;movable=0;resizable=0;rotatable=0;deletable=0;editable=0;locked=1;connectable=0;" vertex="1" parent="PHXaZqlkiY236tPAjjlE-49">
          <mxGeometry x="370" y="282" width="60" height="30" as="geometry" />
        </mxCell>
        <mxCell id="PHXaZqlkiY236tPAjjlE-29" value="count[3:0]&amp;lt;4&#39;b1111" style="text;html=1;strokeColor=none;fillColor=none;align=center;verticalAlign=middle;whiteSpace=wrap;rounded=0;movable=0;resizable=0;rotatable=0;deletable=0;editable=0;locked=1;connectable=0;" vertex="1" parent="PHXaZqlkiY236tPAjjlE-49">
          <mxGeometry x="370" y="104" width="60" height="30" as="geometry" />
        </mxCell>
      </root>
    </mxGraphModel>
  </diagram>
</mxfile>
